<svg xmlns:xlink="http://www.w3.org/1999/xlink" xmlns="http://www.w3.org/2000/svg"
  xmlns:svg="http://www.w3.org/2000/svg" width="169.70322" height="170.72742"
  viewBox="0 0 169.70322 170.72742" version="1.1" id="svg1" xml:space="preserve"><defs id="defs1"/><g id="layer1" transform="matrix(2.6061202,0,0,2.5941488,-105.45625,-92.305083)"><path
      d="M 63.255859,35.582031 A 22.790698,22.790698 0 0 0 40.464844,58.373047 V 81.673828 A 19.720931,19.720931 0 0 0 60.185547,101.39453 H 84.882812 A 20.697675,20.697675 0 0 0 105.58203,80.697266 V 56.349609 A 20.767443,20.767443 0 0 0 84.814453,35.582031 Z m -3.429687,17.791016 a 5.7558141,5.6395345 0 0 1 5.755859,5.638672 5.7558141,5.6395345 0 0 1 -5.755859,5.638672 5.7558141,5.6395345 0 0 1 -5.75586,-5.638672 5.7558141,5.6395345 0 0 1 5.75586,-5.638672 z m 14.720703,0.8125 h 13.347656 a 3.7325581,3.7325581 0 0 1 3.732422,3.732422 v 1.488281 a 4.1976743,4.1976743 0 0 1 -4.197266,4.199219 H 73.953125 a 3.372093,3.372093 0 0 1 -3.371094,-3.373047 v -2.082031 a 3.9651162,3.9651162 0 0 1 3.964844,-3.964844 z m 14.496094,16.888672 c 1.270871,0.03409 2.504211,0.483322 3.449218,1.410156 1.449406,1.421532 1.011184,4.896026 -1.599609,7.109375 -3.637196,3.083502 -9.60133,6.532007 -17.810547,6.103516 C 62.881343,85.164827 56.900049,81.501879 54.353516,78.669922 53.171491,77.355412 52.569279,74.09869 53.625,72.654297 c 0.03602,-0.04928 0.07432,-0.09794 0.115234,-0.146485 1.153203,-1.368362 4.420499,-1.81429 5.945313,-0.943359 2.577614,1.472262 5.927606,4.561503 12.855469,4.628906 5.456101,0.05308 9.918107,-2.097405 12.824218,-4.039062 1.098511,-0.733947 2.406864,-1.114169 3.677735,-1.080078 z"
      style="fill:#FF577F;fill-opacity:1;stroke-width:1.14826;stroke-opacity:0.294807" id="path13" /></g></svg>
